<?xml version="1.0" encoding="UTF-8"?>
<svg id="Layer_2" data-name="Layer 2" xmlns="http://www.w3.org/2000/svg" viewBox="0 0 795.39 811.57">
  <defs>
    <style>
      .cls-1 {
        fill: #fff;
        stroke-width: 0px;
      }
    </style>
  </defs>
  <g id="Layer_1-2" data-name="Layer 1">
    <g>
      <path class="cls-1" d="M728.83,745.02c-88.74,88.74-232.6,88.74-321.34,0-55.93-55.93-76.61-133.77-62.01-205.88.04-.17.08-.35.12-.52,63.49,44.18,143.32,67.25,235.09,70.81,2.24.1,4.39-1.09,5.54-3.05l13.23-22.65c2.15-3.66-.04-8.34-4.22-9.13-87.07-16.01-163.1-49.99-224.35-103.11,9.78-17.1,22.01-33.23,36.61-47.82,88.72-88.74,232.6-88.74,321.34,0,88.74,88.74,88.74,232.61,0,321.34Z"/>
      <path class="cls-1" d="M387.9,387.91c-17.45,17.45-37.05,31.47-57.95,42.03-50.26-59.6-82.82-132.75-98.75-216.2-.67-3.49-4.12-5.71-7.54-4.81l-23.51,6.17c-2.74.73-4.66,3.28-4.56,6.14,3.03,89.49,24.45,167.69,65.77,230.66-.21.04-.4.06-.61.1-68.74,10.18-141.26-11.16-194.19-64.08-88.74-88.74-88.74-232.61,0-321.36,88.74-88.74,232.6-88.74,321.34,0,88.74,88.76,88.74,232.61,0,321.36Z"/>
    </g>
  </g>
</svg>