<?xml version="1.0" encoding="UTF-8"?>
<svg id="Layer_2" data-name="Layer 2" xmlns="http://www.w3.org/2000/svg" viewBox="0 0 854 1312.68">
  <defs>
    <style>
      .cls-1 {
        fill: #73f8ff;
      }

      .cls-1, .cls-2, .cls-3, .cls-4 {
        stroke-width: 0px;
      }

      .cls-2 {
        fill: #2e5ca9;
      }

      .cls-3 {
        fill: #55c9f4;
      }

      .cls-4 {
        fill: #fff;
      }
    </style>
  </defs>
  <g id="Layer_1-2" data-name="Layer 1">
    <g>
      <rect class="cls-3" x="0" width="384.88" height="384.88" rx="57.85" ry="57.85"/>
      <g>
        <path class="cls-4" d="M298.48,301.07c-28.42,28.42-74.49,28.42-102.9,0-17.91-17.91-24.53-42.84-19.86-65.93.01-.06.02-.11.04-.17,20.33,14.15,45.89,21.53,75.28,22.68.72.03,1.41-.35,1.77-.98l4.24-7.25c.69-1.17-.01-2.67-1.35-2.92-27.88-5.13-52.23-16.01-71.84-33.02,3.13-5.48,7.05-10.64,11.72-15.31,28.41-28.42,74.49-28.42,102.9,0,28.42,28.42,28.42,74.49,0,102.9Z"/>
        <path class="cls-4" d="M189.3,186.71c-5.59,5.59-11.86,10.08-18.56,13.46-16.09-19.08-26.52-42.51-31.62-69.24-.21-1.12-1.32-1.83-2.41-1.54l-7.53,1.98c-.88.23-1.49,1.05-1.46,1.96.97,28.66,7.83,53.7,21.06,73.87-.07.01-.13.02-.2.03-22.01,3.26-45.24-3.57-62.19-20.52-28.42-28.42-28.42-74.49,0-102.91,28.42-28.42,74.49-28.42,102.9,0,28.42,28.42,28.42,74.49,0,102.91Z"/>
      </g>
      <rect class="cls-2" x="469.12" width="384.88" height="384.88" rx="57.85" ry="57.85"/>
      <g>
        <path class="cls-4" d="M767.6,301.07c-28.42,28.42-74.49,28.42-102.9,0-17.91-17.91-24.53-42.84-19.86-65.93.01-.06.02-.11.04-.17,20.33,14.15,45.89,21.53,75.28,22.68.72.03,1.41-.35,1.77-.98l4.24-7.25c.69-1.17-.01-2.67-1.35-2.92-27.88-5.13-52.23-16.01-71.84-33.02,3.13-5.48,7.05-10.64,11.72-15.31,28.41-28.42,74.49-28.42,102.9,0,28.42,28.42,28.42,74.49,0,102.9Z"/>
        <path class="cls-4" d="M658.42,186.71c-5.59,5.59-11.86,10.08-18.56,13.46-16.09-19.08-26.52-42.51-31.62-69.24-.21-1.12-1.32-1.83-2.41-1.54l-7.53,1.98c-.88.23-1.49,1.05-1.46,1.96.97,28.66,7.83,53.7,21.06,73.87-.07.01-.13.02-.2.03-22.01,3.26-45.24-3.57-62.19-20.52-28.42-28.42-28.42-74.49,0-102.91,28.42-28.42,74.49-28.42,102.9,0,28.42,28.42,28.42,74.49,0,102.91Z"/>
      </g>
      <rect class="cls-1" x="469.12" y="466.7" width="384.88" height="384.88" rx="57.85" ry="57.85"/>
      <g>
        <path class="cls-2" d="M767.6,767.77c-28.42,28.42-74.49,28.42-102.9,0-17.91-17.91-24.53-42.84-19.86-65.93.01-.06.02-.11.04-.17,20.33,14.15,45.89,21.53,75.28,22.68.72.03,1.41-.35,1.77-.98l4.24-7.25c.69-1.17-.01-2.67-1.35-2.92-27.88-5.13-52.23-16.01-71.84-33.02,3.13-5.48,7.05-10.64,11.72-15.31,28.41-28.42,74.49-28.42,102.9,0,28.42,28.42,28.42,74.49,0,102.9Z"/>
        <path class="cls-2" d="M658.42,653.42c-5.59,5.59-11.86,10.08-18.56,13.46-16.09-19.08-26.52-42.51-31.62-69.24-.21-1.12-1.32-1.83-2.41-1.54l-7.53,1.98c-.88.23-1.49,1.05-1.46,1.96.97,28.66,7.83,53.7,21.06,73.87-.07.01-.13.02-.2.03-22.01,3.26-45.24-3.57-62.19-20.52-28.42-28.42-28.42-74.49,0-102.91,28.42-28.42,74.49-28.42,102.9,0,28.42,28.42,28.42,74.49,0,102.91Z"/>
      </g>
      <rect class="cls-2" x="1.22" y="466.7" width="384.88" height="384.88" rx="57.85" ry="57.85"/>
      <g>
        <path class="cls-3" d="M299.7,767.77c-28.42,28.42-74.49,28.42-102.9,0-17.91-17.91-24.53-42.84-19.86-65.93.01-.06.02-.11.04-.17,20.33,14.15,45.89,21.53,75.28,22.68.72.03,1.41-.35,1.77-.98l4.24-7.25c.69-1.17-.01-2.67-1.35-2.92-27.88-5.13-52.23-16.01-71.84-33.02,3.13-5.48,7.05-10.64,11.72-15.31,28.41-28.42,74.49-28.42,102.9,0,28.42,28.42,28.42,74.49,0,102.9Z"/>
        <path class="cls-3" d="M190.52,653.42c-5.59,5.59-11.86,10.08-18.56,13.46-16.09-19.08-26.52-42.51-31.62-69.24-.21-1.12-1.32-1.83-2.41-1.54l-7.53,1.98c-.88.23-1.49,1.05-1.46,1.96.97,28.66,7.83,53.7,21.06,73.87-.07.01-.13.02-.2.03-22.01,3.26-45.24-3.57-62.19-20.52-28.42-28.42-28.42-74.49,0-102.91,28.42-28.42,74.49-28.42,102.9,0,28.42,28.42,28.42,74.49,0,102.91Z"/>
      </g>
      <rect class="cls-3" x="469.12" y="927.8" width="384.88" height="384.88" rx="57.85" ry="57.85"/>
      <g>
        <path class="cls-1" d="M767.6,1228.87c-28.42,28.42-74.49,28.42-102.9,0-17.91-17.91-24.53-42.84-19.86-65.93.01-.06.02-.11.04-.17,20.33,14.15,45.89,21.53,75.28,22.68.72.03,1.41-.35,1.77-.98l4.24-7.25c.69-1.17-.01-2.67-1.35-2.92-27.88-5.13-52.23-16.01-71.84-33.02,3.13-5.48,7.05-10.64,11.72-15.31,28.41-28.42,74.49-28.42,102.9,0,28.42,28.42,28.42,74.49,0,102.9Z"/>
        <path class="cls-1" d="M658.42,1114.52c-5.59,5.59-11.86,10.08-18.56,13.46-16.09-19.08-26.52-42.51-31.62-69.24-.21-1.12-1.32-1.83-2.41-1.54l-7.53,1.98c-.88.23-1.49,1.05-1.46,1.96.97,28.66,7.83,53.7,21.06,73.87-.07.01-.13.02-.2.03-22.01,3.26-45.24-3.57-62.19-20.52-28.42-28.42-28.42-74.49,0-102.91,28.42-28.42,74.49-28.42,102.9,0,28.42,28.42,28.42,74.49,0,102.91Z"/>
      </g>
      <rect class="cls-1" x="1.22" y="927.8" width="384.88" height="384.88" rx="57.85" ry="57.85"/>
      <g>
        <path class="cls-3" d="M299.7,1228.87c-28.42,28.42-74.49,28.42-102.9,0-17.91-17.91-24.53-42.84-19.86-65.93.01-.06.02-.11.04-.17,20.33,14.15,45.89,21.53,75.28,22.68.72.03,1.41-.35,1.77-.98l4.24-7.25c.69-1.17-.01-2.67-1.35-2.92-27.88-5.13-52.23-16.01-71.84-33.02,3.13-5.48,7.05-10.64,11.72-15.31,28.41-28.42,74.49-28.42,102.9,0,28.42,28.42,28.42,74.49,0,102.9Z"/>
        <path class="cls-3" d="M190.52,1114.52c-5.59,5.59-11.86,10.08-18.56,13.46-16.09-19.08-26.52-42.51-31.62-69.24-.21-1.12-1.32-1.83-2.41-1.54l-7.53,1.98c-.88.23-1.49,1.05-1.46,1.96.97,28.66,7.83,53.7,21.06,73.87-.07.01-.13.02-.2.03-22.01,3.26-45.24-3.57-62.19-20.52-28.42-28.42-28.42-74.49,0-102.91,28.42-28.42,74.49-28.42,102.9,0,28.42,28.42,28.42,74.49,0,102.91Z"/>
      </g>
    </g>
  </g>
</svg>