<?xml version="1.0" encoding="UTF-8"?>
<svg id="Layer_2" data-name="Layer 2" xmlns="http://www.w3.org/2000/svg" viewBox="0 0 947.32 174.81">
  <defs>
    <style>
      .cls-1 {
        fill: #1b75bb;
      }

      .cls-1, .cls-2, .cls-3 {
        stroke-width: 0px;
      }

      .cls-2 {
        fill: #00adee;
      }

      .cls-3 {
        fill: #231f20;
      }
    </style>
  </defs>
  <g id="Layer_1-2" data-name="Layer 1">
    <g>
      <g>
        <path class="cls-1" d="M156.99,160.47c-19.11,19.11-50.1,19.11-69.21,0-12.05-12.05-16.5-28.81-13.36-44.35,0-.04.02-.07.02-.11,13.68,9.52,30.87,14.48,50.64,15.25.48.02.95-.24,1.19-.66l2.85-4.88c.46-.79,0-1.8-.91-1.97-18.76-3.45-35.13-10.77-48.32-22.21,2.11-3.68,4.74-7.16,7.88-10.3,19.11-19.11,50.1-19.11,69.21,0,19.11,19.11,19.11,50.1,0,69.21Z"/>
        <path class="cls-2" d="M83.55,83.55c-3.76,3.76-7.98,6.78-12.48,9.05-10.83-12.84-17.84-28.59-21.27-46.57-.14-.75-.89-1.23-1.62-1.04l-5.06,1.33c-.59.16-1,.71-.98,1.32.65,19.28,5.27,36.12,14.17,49.68-.05,0-.09.01-.13.02-14.81,2.19-30.43-2.4-41.83-13.8C-4.78,64.44-4.78,33.45,14.34,14.34c19.11-19.11,50.1-19.11,69.21,0,19.11,19.12,19.11,50.1,0,69.22Z"/>
      </g>
      <g>
        <path class="cls-3" d="M263.68,49.16c-3.11-3.91-6.92-6.96-11.44-9.14-4.52-2.18-9.68-3.27-15.49-3.27h-28.92c-2.1,0-3.85.71-5.26,2.12-1.41,1.41-2.12,3.17-2.12,5.26v69.94c0,2.1.71,3.85,2.12,5.26,1.41,1.41,3.17,2.12,5.26,2.12h28.92c7.82,0,14.42-1.89,19.79-5.69,5.36-3.79,9.46-8.89,12.28-15.31,2.82-6.41,4.23-13.53,4.23-21.36,0-5.81-.79-11.27-2.36-16.4-1.57-5.12-3.91-9.64-7.02-13.55ZM255.09,93.21c-1.49,4.32-3.85,7.79-7.08,10.41-3.23,2.62-7.38,3.93-12.46,3.93h-19.97v-56.87h19.97c3.79,0,7.06.77,9.8,2.3,2.74,1.53,5,3.61,6.78,6.23,1.77,2.62,3.09,5.65,3.93,9.08.85,3.43,1.27,7.04,1.27,10.83,0,5.08-.75,9.78-2.24,14.1Z"/>
        <path class="cls-3" d="M313.78,51.58c1.01.69,1.83,1.03,2.48,1.03.89,0,1.82-.12,2.78-.36.97-.24,1.86-.81,2.66-1.69l9.2-10.16c.73-.89,1.27-1.77,1.63-2.66.36-.89.58-1.73.67-2.54.08-1.69-.4-3.13-1.45-4.3-1.05-1.17-2.7-1.75-4.96-1.75-1.45,0-2.74.48-3.87,1.45-1.13.97-2.06,2.1-2.78,3.39l-7.02,12.34c-.48.81-.73,1.57-.73,2.3-.08,1.29.38,2.28,1.39,2.96Z"/>
        <path class="cls-3" d="M332.3,59.81c-4.96-2.86-10.51-4.3-16.64-4.3s-11.68,1.43-16.64,4.3c-4.96,2.86-8.92,6.82-11.86,11.86-2.95,5.04-4.42,10.87-4.42,17.49s1.47,12.45,4.42,17.49c2.94,5.04,6.9,8.98,11.86,11.8,4.96,2.82,10.51,4.24,16.64,4.24s11.68-1.41,16.64-4.24c4.96-2.82,8.91-6.76,11.86-11.8,2.94-5.04,4.42-10.87,4.42-17.49s-1.47-12.44-4.42-17.49c-2.95-5.04-6.9-8.99-11.86-11.86ZM331.57,99.74c-1.65,3.03-3.87,5.39-6.66,7.08-2.78,1.69-5.87,2.54-9.26,2.54s-6.47-.85-9.26-2.54c-2.78-1.69-5-4.05-6.65-7.08-1.66-3.03-2.48-6.55-2.48-10.59s.83-7.68,2.48-10.71c1.65-3.03,3.87-5.38,6.65-7.08,2.78-1.69,5.87-2.54,9.26-2.54s6.47.85,9.26,2.54,5,4.05,6.66,7.08c1.65,3.03,2.48,6.6,2.48,10.71s-.83,7.56-2.48,10.59Z"/>
        <path class="cls-3" d="M393.98,85.73l18.24-16.79c1.94-1.69,2.9-3.51,2.9-5.45,0-1.45-.69-2.94-2.06-4.48-1.37-1.53-2.99-2.3-4.84-2.3-2.02,0-3.79.77-5.32,2.3l-25.9,24.99v-44.72c0-2.1-.69-3.85-2.06-5.26-1.37-1.41-3.11-2.12-5.2-2.12s-3.83.71-5.2,2.12c-1.37,1.41-2.06,3.17-2.06,5.26v74.78c0,2.1.68,3.85,2.06,5.26,1.37,1.41,3.1,2.12,5.2,2.12s3.83-.71,5.2-2.12c1.37-1.41,2.06-3.17,2.06-5.26v-12.73l5.95-5.48,21.76,23.05c1.45,1.61,3.23,2.42,5.32,2.42,1.61,0,3.25-.67,4.9-2,1.65-1.33,2.48-3.04,2.48-5.14s-.77-3.83-2.3-5.45l-21.15-23.03Z"/>
        <path class="cls-3" d="M454.09,35.18c.08-1.69-.4-3.13-1.45-4.3-1.05-1.17-2.7-1.75-4.96-1.75-1.45,0-2.74.48-3.87,1.45-1.13.97-2.06,2.1-2.78,3.39l-7.02,12.34c-.48.81-.73,1.57-.73,2.3-.08,1.29.38,2.28,1.39,2.96,1.01.69,1.83,1.03,2.48,1.03.89,0,1.82-.12,2.78-.36.97-.24,1.85-.81,2.66-1.69l9.2-10.16c.73-.89,1.27-1.77,1.63-2.66.36-.89.58-1.73.66-2.54Z"/>
        <path class="cls-3" d="M436.55,56.72c-2.1,0-3.83.71-5.2,2.12-1.37,1.41-2.06,3.17-2.06,5.26v49.98c0,2.1.68,3.85,2.06,5.26,1.37,1.41,3.1,2.12,5.2,2.12s3.83-.71,5.2-2.12c1.37-1.41,2.06-3.17,2.06-5.26v-49.98c0-2.1-.69-3.85-2.06-5.26-1.37-1.41-3.11-2.12-5.2-2.12Z"/>
        <path class="cls-3" d="M488.09,71.24c1.94,0,3.55-.62,4.84-1.88,1.29-1.25,1.94-2.8,1.94-4.66s-.65-3.55-1.94-4.84c-1.29-1.29-2.9-1.94-4.84-1.94h-8.59v-7.74c0-2.1-.67-3.85-2-5.26-1.33-1.41-3.05-2.12-5.14-2.12s-3.85.71-5.26,2.12-2.12,3.17-2.12,5.26v7.74h-5.57c-1.94,0-3.55.63-4.84,1.88-1.29,1.25-1.94,2.8-1.94,4.66s.64,3.55,1.94,4.84c1.29,1.29,2.9,1.94,4.84,1.94h5.57v33.4c0,3.95.6,7.06,1.82,9.32,1.21,2.26,2.72,3.93,4.54,5.02,1.82,1.09,3.75,1.78,5.81,2.06,2.06.28,3.93.42,5.63.42,2.82,0,5.46-.73,7.93-2.18,2.46-1.45,3.69-3.31,3.69-5.57,0-1.86-.46-3.31-1.39-4.36-.93-1.05-1.96-1.57-3.09-1.57-1.05,0-1.98.18-2.78.54-.81.36-1.69.54-2.66.54-.89,0-1.71-.16-2.48-.48-.77-.32-1.37-.85-1.82-1.57-.44-.73-.66-1.65-.66-2.78v-32.79h8.59Z"/>
        <path class="cls-3" d="M561.18,55.51c-2.1,0-3.83.71-5.2,2.12-1.37,1.41-2.06,3.17-2.06,5.26v.18c-.71-.67-1.49-1.33-2.36-1.99-2.14-1.61-4.66-2.94-7.56-3.99-2.9-1.05-6.09-1.57-9.56-1.57-5.41,0-10.33,1.43-14.76,4.3-4.44,2.86-7.97,6.82-10.59,11.86-2.62,5.04-3.93,10.87-3.93,17.49s1.31,12.32,3.93,17.37c2.62,5.04,6.19,9,10.71,11.86,4.52,2.86,9.56,4.3,15.13,4.3,3.06,0,5.91-.5,8.53-1.51,2.62-1.01,4.9-2.24,6.84-3.69,1.43-1.08,2.64-2.16,3.64-3.26.03,2.04.71,3.75,2.05,5.14,1.37,1.41,3.1,2.12,5.2,2.12s3.83-.71,5.2-2.12c1.37-1.41,2.06-3.17,2.06-5.26v-51.19c0-2.18-.69-3.95-2.06-5.32-1.37-1.37-3.11-2.06-5.2-2.06ZM552.29,99.44c-1.49,3.07-3.57,5.49-6.23,7.26-2.66,1.78-5.77,2.66-9.32,2.66s-6.53-.89-9.2-2.66c-2.66-1.77-4.74-4.19-6.23-7.26-1.49-3.06-2.24-6.49-2.24-10.29s.74-7.34,2.24-10.41c1.49-3.07,3.57-5.49,6.23-7.26,2.66-1.77,5.73-2.66,9.2-2.66s6.65.89,9.32,2.66c2.66,1.78,4.74,4.2,6.23,7.26,1.49,3.07,2.24,6.53,2.24,10.41s-.75,7.22-2.24,10.29Z"/>
        <path class="cls-3" d="M522.95,45.35l12.1,6.41c.48.24.97.42,1.45.54.48.12.93.18,1.33.18,1.53,0,2.76-.4,3.69-1.21.93-.81,1.39-1.85,1.39-3.15,0-1.13-.57-2.22-1.69-3.27l-10.41-9.2c-.81-.73-1.72-1.35-2.72-1.88-1.01-.52-2.08-.79-3.21-.79-1.37,0-2.78.53-4.24,1.57-1.45,1.05-2.18,2.5-2.18,4.36,0,1.21.38,2.38,1.15,3.51.77,1.13,1.88,2.1,3.33,2.9Z"/>
        <path class="cls-3" d="M667.19,50.67c2.1,0,3.85-.62,5.26-1.88,1.41-1.25,2.12-2.88,2.12-4.9s-.71-3.81-2.12-5.14c-1.41-1.33-3.17-2-5.26-2h-40.54c-2.1,0-3.85.71-5.26,2.12-1.41,1.41-2.12,3.17-2.12,5.26v69.94c0,2.1.7,3.85,2.12,5.26,1.41,1.41,3.17,2.12,5.26,2.12h40.54c2.1,0,3.85-.64,5.26-1.94,1.41-1.29,2.12-2.94,2.12-4.96,0-1.86-.71-3.49-2.12-4.9-1.41-1.41-3.17-2.12-5.26-2.12h-32.79v-22.39h27.35c2.1,0,3.85-.62,5.26-1.88,1.41-1.25,2.12-2.88,2.12-4.9s-.71-3.81-2.12-5.14c-1.41-1.33-3.17-2-5.26-2h-27.35v-20.57h32.79Z"/>
        <path class="cls-3" d="M695.87,31.92c-2.1,0-3.85.71-5.26,2.12s-2.12,3.17-2.12,5.26v74.78c0,2.1.68,3.85,2.06,5.26,1.37,1.41,3.06,2.12,5.08,2.12s3.85-.71,5.26-2.12,2.12-3.17,2.12-5.26V39.3c0-2.1-.67-3.85-2-5.26-1.33-1.41-3.05-2.12-5.14-2.12Z"/>
        <path class="cls-3" d="M745.66,51.58c1.01.69,1.83,1.03,2.48,1.03.89,0,1.82-.12,2.78-.36.97-.24,1.85-.81,2.66-1.69l9.2-10.16c.73-.89,1.27-1.77,1.63-2.66.36-.89.58-1.73.67-2.54.08-1.69-.4-3.13-1.45-4.3-1.05-1.17-2.7-1.75-4.96-1.75-1.45,0-2.74.48-3.87,1.45-1.13.97-2.06,2.1-2.78,3.39l-7.02,12.34c-.48.81-.73,1.57-.73,2.3-.08,1.29.38,2.28,1.39,2.96Z"/>
        <path class="cls-3" d="M769.44,65.01c-2.82-2.94-6.07-5.26-9.74-6.96-3.67-1.69-7.56-2.54-11.68-2.54-5.32,0-10.37,1.37-15.13,4.11-4.76,2.74-8.61,6.68-11.56,11.8-2.95,5.12-4.42,11.31-4.42,18.57,0,6.21,1.35,11.78,4.05,16.7,2.7,4.92,6.57,8.82,11.62,11.68,5.04,2.86,10.99,4.3,17.85,4.3,4.03,0,7.94-.67,11.74-2,3.79-1.33,6.73-2.88,8.83-4.66,2.26-1.77,3.39-3.75,3.39-5.93,0-1.61-.59-3.03-1.75-4.24-1.17-1.21-2.64-1.82-4.42-1.82-1.29,0-2.66.36-4.11,1.09-.89.48-1.88,1.07-2.96,1.75-1.09.69-2.52,1.27-4.3,1.75-1.78.48-4.16.73-7.14.73-3.23,0-6.27-.79-9.14-2.36-2.86-1.57-5.2-3.87-7.02-6.9-1.06-1.77-1.8-3.77-2.24-5.99h39.94c1.94,0,3.63-.61,5.08-1.82,1.45-1.21,2.22-2.78,2.3-4.72,0-4.36-.83-8.47-2.48-12.34-1.65-3.87-3.89-7.28-6.72-10.23ZM735.8,73.06c1.53-1.53,3.35-2.62,5.45-3.27,2.1-.64,4.36-.97,6.78-.97s4.86.54,7.08,1.63c2.22,1.09,4.07,2.56,5.57,4.42,1.49,1.86,2.32,3.95,2.48,6.29v.85h-31.71c.2-1,.44-1.93.73-2.78.89-2.58,2.1-4.64,3.63-6.17Z"/>
        <path class="cls-3" d="M839.38,56.72c-2.1,0-3.83.71-5.2,2.12-1.37,1.41-2.06,3.17-2.06,5.26v30.98c0,3.07-.53,5.67-1.57,7.81-1.05,2.14-2.54,3.75-4.48,4.84-1.94,1.09-4.32,1.63-7.14,1.63-4.11,0-7.32-1.07-9.62-3.21-2.3-2.14-3.45-5.83-3.45-11.07v-30.98c0-2.1-.69-3.85-2.06-5.26-1.37-1.41-3.11-2.12-5.2-2.12s-3.83.71-5.2,2.12c-1.37,1.41-2.06,3.17-2.06,5.26v35.33c0,4.52.89,8.53,2.66,12.04,1.77,3.51,4.25,6.25,7.44,8.23,3.19,1.98,6.92,2.96,11.19,2.96,3.63,0,6.86-.44,9.68-1.33,2.82-.89,5.26-2.2,7.32-3.93.94-.79,1.8-1.7,2.6-2.69v1.3c0,4.11-.63,7.36-1.88,9.74-1.25,2.38-3.11,4.07-5.57,5.08-2.46,1.01-5.55,1.51-9.26,1.51-2.74,0-5.16-.42-7.26-1.27-2.1-.85-3.79-1.47-5.08-1.88-1.78-.65-3.47-.54-5.08.3-1.61.85-2.78,2.44-3.51,4.78-.57,1.77-.38,3.45.54,5.02.93,1.57,2.6,2.88,5.02,3.93,1.85.81,4.24,1.41,7.14,1.82,2.9.4,5.65.61,8.23.61,5.81,0,11.05-.97,15.73-2.9,4.68-1.94,8.41-5.1,11.19-9.5,2.78-4.4,4.17-10.31,4.17-17.73v-51.43c0-2.1-.69-3.85-2.06-5.26-1.37-1.41-3.11-2.12-5.2-2.12Z"/>
        <path class="cls-3" d="M879.92,29.13c-1.45,0-2.74.48-3.87,1.45-1.13.97-2.06,2.1-2.78,3.39l-7.02,12.34c-.48.81-.73,1.57-.73,2.3-.08,1.29.38,2.28,1.39,2.96,1.01.69,1.83,1.03,2.48,1.03.89,0,1.82-.12,2.78-.36.97-.24,1.85-.81,2.66-1.69l9.2-10.16c.73-.89,1.27-1.77,1.63-2.66.36-.89.58-1.73.66-2.54.08-1.69-.4-3.13-1.45-4.3-1.05-1.17-2.7-1.75-4.96-1.75Z"/>
        <path class="cls-3" d="M868.79,56.72c-2.1,0-3.83.71-5.2,2.12-1.37,1.41-2.06,3.17-2.06,5.26v49.98c0,2.1.68,3.85,2.06,5.26,1.37,1.41,3.1,2.12,5.2,2.12s3.83-.71,5.2-2.12c1.37-1.41,2.06-3.17,2.06-5.26v-49.98c0-2.1-.69-3.85-2.06-5.26-1.37-1.41-3.11-2.12-5.2-2.12Z"/>
        <path class="cls-3" d="M945.57,69.25c-1.17-4.15-3.31-7.48-6.41-9.98-3.11-2.5-7.65-3.75-13.61-3.75-2.74,0-5.29.42-7.62,1.27-2.34.85-4.44,1.96-6.29,3.33-1.86,1.37-3.47,2.84-4.84,4.42-.49.56-.92,1.11-1.33,1.64v-2.07c0-2.1-.69-3.85-2.06-5.26-1.37-1.41-3.11-2.12-5.2-2.12s-3.83.71-5.2,2.12c-1.37,1.41-2.06,3.17-2.06,5.26v49.98c0,2.1.68,3.85,2.06,5.26,1.37,1.41,3.1,2.12,5.2,2.12s3.83-.71,5.2-2.12c1.37-1.41,2.06-3.17,2.06-5.26v-30.98c0-2.66.58-5.06,1.75-7.2,1.17-2.14,2.86-3.85,5.08-5.14,2.22-1.29,4.94-1.94,8.17-1.94s5.85.65,7.62,1.94c1.77,1.29,3,3.01,3.69,5.14.68,2.14,1.03,4.54,1.03,7.2v30.98c0,2.1.68,3.85,2.06,5.26,1.37,1.41,3.1,2.12,5.2,2.12s3.83-.71,5.2-2.12c1.37-1.41,2.06-3.17,2.06-5.26v-30.98c0-5.08-.59-9.7-1.75-13.86Z"/>
      </g>
    </g>
  </g>
</svg>