<?xml version="1.0" encoding="UTF-8"?>
<svg id="Layer_2" data-name="Layer 2" xmlns="http://www.w3.org/2000/svg" viewBox="0 0 677.54 303.11">
  <defs>
    <style>
      .cls-1 {
        fill: #fff;
        stroke-width: 0px;
      }
    </style>
  </defs>
  <g id="Layer_1-2" data-name="Layer 1">
    <g>
      <g>
        <path class="cls-1" d="M272.21,278.25c-33.14,33.14-86.87,33.14-120.02,0-20.89-20.89-28.61-49.96-23.16-76.89.01-.06.03-.13.04-.19,23.71,16.5,53.53,25.12,87.8,26.45.84.04,1.64-.41,2.07-1.14l4.94-8.46c.8-1.37-.01-3.12-1.58-3.41-32.52-5.98-60.92-18.67-83.79-38.51,3.65-6.39,8.22-12.41,13.67-17.86,33.14-33.14,86.87-33.14,120.02,0,33.14,33.14,33.14,86.88,0,120.02Z"/>
        <path class="cls-1" d="M144.87,144.88c-6.52,6.52-13.84,11.75-21.64,15.7-18.77-22.26-30.93-49.58-36.88-80.75-.25-1.3-1.54-2.13-2.81-1.8l-8.78,2.31c-1.02.27-1.74,1.22-1.7,2.29,1.13,33.42,9.13,62.63,24.56,86.15-.08.01-.15.02-.23.04-25.67,3.8-52.76-4.17-72.53-23.93C-8.29,111.74-8.29,58,24.86,24.86c33.14-33.14,86.87-33.14,120.02,0,33.14,33.15,33.14,86.88,0,120.02Z"/>
      </g>
      <g>
        <path class="cls-1" d="M410.59,80.49c-1.41-4.59-3.51-8.64-6.29-12.15-2.79-3.51-6.2-6.24-10.25-8.19-4.05-1.95-8.68-2.93-13.89-2.93h-25.93c-1.88,0-3.46.63-4.72,1.9-1.27,1.27-1.9,2.84-1.9,4.72v62.71c0,1.88.63,3.45,1.9,4.72,1.26,1.27,2.84,1.9,4.72,1.9h25.93c7.01,0,12.93-1.7,17.74-5.1,4.81-3.4,8.48-7.97,11.01-13.72,2.53-5.75,3.8-12.13,3.8-19.15,0-5.21-.7-10.11-2.12-14.7ZM396.6,107.83c-1.34,3.87-3.45,6.98-6.35,9.33-2.89,2.35-6.62,3.53-11.17,3.53h-17.9v-50.99h17.9c3.4,0,6.33.69,8.79,2.06,2.46,1.38,4.48,3.24,6.08,5.59,1.59,2.35,2.77,5.06,3.53,8.14.76,3.08,1.14,6.31,1.14,9.71,0,4.56-.67,8.77-2.01,12.64Z"/>
        <path class="cls-1" d="M449.22,70.51c.9.62,1.64.92,2.22.92.8,0,1.63-.11,2.5-.33.87-.22,1.66-.72,2.39-1.52l8.25-9.11c.65-.79,1.14-1.59,1.46-2.39.33-.8.52-1.55.6-2.28.07-1.52-.36-2.8-1.3-3.85-.94-1.05-2.42-1.57-4.45-1.57-1.3,0-2.46.43-3.47,1.3-1.01.87-1.84,1.88-2.5,3.04l-6.29,11.07c-.43.72-.65,1.41-.65,2.06-.07,1.16.34,2.04,1.25,2.66Z"/>
        <path class="cls-1" d="M450.9,134.25c5.5,0,10.47-1.26,14.92-3.8,4.45-2.53,7.99-6.06,10.63-10.58,2.64-4.52,3.96-9.75,3.96-15.68s-1.32-11.16-3.96-15.68c-2.64-4.52-6.18-8.06-10.63-10.63-4.45-2.57-9.42-3.85-14.92-3.85s-10.47,1.28-14.92,3.85c-4.45,2.57-7.99,6.11-10.63,10.63-2.64,4.52-3.96,9.75-3.96,15.68s1.32,11.16,3.96,15.68c2.64,4.52,6.18,8.05,10.63,10.58,4.45,2.53,9.42,3.8,14.92,3.8ZM436.63,94.6c1.48-2.71,3.47-4.83,5.97-6.35,2.5-1.52,5.26-2.28,8.3-2.28s5.8.76,8.3,2.28,4.48,3.63,5.97,6.35c1.48,2.71,2.22,5.91,2.22,9.6s-.74,6.78-2.22,9.49c-1.48,2.71-3.47,4.83-5.97,6.35s-5.26,2.28-8.3,2.28-5.8-.76-8.3-2.28c-2.5-1.52-4.49-3.63-5.97-6.35-1.48-2.71-2.22-5.88-2.22-9.49s.74-6.89,2.22-9.6Z"/>
        <path class="cls-1" d="M505.9,126.55v-11.41l5.34-4.91,19.51,20.67c1.3,1.45,2.89,2.17,4.77,2.17,1.45,0,2.91-.6,4.39-1.79,1.48-1.19,2.22-2.73,2.22-4.61s-.69-3.43-2.06-4.88l-18.96-20.64,16.35-15.05c1.74-1.52,2.6-3.15,2.6-4.88,0-1.3-.62-2.64-1.84-4.01-1.23-1.37-2.68-2.06-4.34-2.06-1.81,0-3.4.69-4.77,2.06l-23.22,22.41v-40.09c0-1.88-.62-3.45-1.84-4.72-1.23-1.26-2.79-1.9-4.67-1.9s-3.44.63-4.67,1.9c-1.23,1.27-1.84,2.84-1.84,4.72v67.05c0,1.88.61,3.45,1.84,4.72,1.23,1.27,2.78,1.9,4.67,1.9s3.43-.63,4.67-1.9c1.23-1.26,1.84-2.84,1.84-4.72Z"/>
        <path class="cls-1" d="M565.79,81.74c0-1.88-.62-3.45-1.84-4.72-1.23-1.26-2.79-1.9-4.67-1.9s-3.44.63-4.67,1.9c-1.23,1.27-1.84,2.84-1.84,4.72v44.81c0,1.88.61,3.45,1.84,4.72,1.23,1.27,2.78,1.9,4.67,1.9s3.43-.63,4.67-1.9c1.23-1.26,1.84-2.84,1.84-4.72v-44.81Z"/>
        <path class="cls-1" d="M557.6,70.51c.9.62,1.64.92,2.22.92.8,0,1.63-.11,2.5-.33.87-.22,1.66-.72,2.39-1.52l8.25-9.11c.65-.79,1.14-1.59,1.46-2.39.33-.8.52-1.55.6-2.28.07-1.52-.36-2.8-1.3-3.85-.94-1.05-2.42-1.57-4.45-1.57-1.3,0-2.46.43-3.47,1.3-1.01.87-1.84,1.88-2.5,3.04l-6.29,11.07c-.43.72-.65,1.41-.65,2.06-.07,1.16.34,2.04,1.25,2.66Z"/>
        <path class="cls-1" d="M600.73,133.17c2.53,0,4.9-.65,7.11-1.95,2.21-1.3,3.31-2.96,3.31-4.99,0-1.66-.42-2.96-1.25-3.91-.83-.94-1.75-1.41-2.77-1.41-.94,0-1.77.16-2.5.49-.72.33-1.52.49-2.39.49-.8,0-1.54-.14-2.22-.43-.69-.29-1.23-.76-1.63-1.41-.4-.65-.6-1.48-.6-2.5v-29.4h7.7c1.74,0,3.18-.56,4.34-1.68,1.16-1.12,1.74-2.51,1.74-4.18s-.58-3.18-1.74-4.34c-1.16-1.16-2.6-1.74-4.34-1.74h-7.7v-6.94c0-1.88-.6-3.45-1.79-4.72-1.19-1.26-2.73-1.9-4.61-1.9s-3.45.63-4.72,1.9-1.9,2.84-1.9,4.72v6.94h-4.99c-1.74,0-3.18.56-4.34,1.68-1.16,1.12-1.74,2.51-1.74,4.18s.58,3.18,1.74,4.34c1.16,1.16,2.6,1.74,4.34,1.74h4.99v29.94c0,3.54.54,6.33,1.63,8.35,1.08,2.03,2.44,3.53,4.07,4.5,1.63.98,3.36,1.59,5.21,1.84,1.84.25,3.53.38,5.04.38Z"/>
        <path class="cls-1" d="M675.7,75.88c-1.23-1.23-2.79-1.84-4.67-1.84s-3.44.63-4.67,1.9c-1.23,1.27-1.84,2.84-1.84,4.72v.16c-.64-.6-1.33-1.19-2.12-1.79-1.92-1.45-4.18-2.64-6.78-3.58-2.6-.94-5.46-1.41-8.57-1.41-4.85,0-9.26,1.28-13.24,3.85-3.98,2.57-7.14,6.11-9.49,10.63-2.35,4.52-3.53,9.75-3.53,15.68s1.17,11.05,3.53,15.57c2.35,4.52,5.55,8.07,9.6,10.63,4.05,2.57,8.57,3.85,13.56,3.85,2.75,0,5.3-.45,7.65-1.36,2.35-.9,4.39-2.01,6.13-3.31,1.29-.96,2.37-1.94,3.26-2.92.02,1.83.63,3.37,1.84,4.6,1.23,1.27,2.78,1.9,4.67,1.9s3.43-.63,4.67-1.9c1.23-1.26,1.84-2.84,1.84-4.72v-45.89c0-1.95-.62-3.54-1.84-4.77ZM663.06,113.42c-1.34,2.75-3.2,4.92-5.59,6.51-2.39,1.59-5.17,2.39-8.35,2.39s-5.86-.8-8.25-2.39c-2.39-1.59-4.25-3.76-5.59-6.51-1.34-2.75-2.01-5.82-2.01-9.22s.67-6.58,2.01-9.33c1.34-2.75,3.2-4.92,5.59-6.51,2.39-1.59,5.13-2.39,8.25-2.39s5.97.8,8.35,2.39c2.39,1.59,4.25,3.76,5.59,6.51,1.34,2.75,2.01,5.86,2.01,9.33s-.67,6.47-2.01,9.22Z"/>
        <path class="cls-1" d="M636.75,64.92l10.85,5.75c.43.22.87.38,1.3.49.43.11.83.16,1.19.16,1.37,0,2.48-.36,3.31-1.09.83-.72,1.25-1.66,1.25-2.82,0-1.01-.51-1.99-1.52-2.93l-9.33-8.25c-.72-.65-1.54-1.21-2.44-1.68-.91-.47-1.86-.7-2.88-.7-1.23,0-2.5.47-3.8,1.41-1.3.94-1.95,2.24-1.95,3.91,0,1.08.34,2.13,1.03,3.15.69,1.01,1.68,1.88,2.98,2.6Z"/>
        <path class="cls-1" d="M390.58,167.4c1.88,0,3.45-.56,4.72-1.68,1.26-1.12,1.9-2.59,1.9-4.39s-.63-3.42-1.9-4.61c-1.27-1.19-2.84-1.79-4.72-1.79h-36.35c-1.88,0-3.46.63-4.72,1.9-1.27,1.27-1.9,2.84-1.9,4.72v62.71c0,1.88.63,3.45,1.9,4.72,1.26,1.27,2.84,1.9,4.72,1.9h36.35c1.88,0,3.45-.58,4.72-1.74,1.26-1.16,1.9-2.64,1.9-4.45,0-1.66-.63-3.13-1.9-4.39-1.27-1.26-2.84-1.9-4.72-1.9h-29.4v-20.07h24.52c1.88,0,3.45-.56,4.72-1.68,1.26-1.12,1.9-2.59,1.9-4.39s-.63-3.42-1.9-4.61c-1.27-1.19-2.84-1.79-4.72-1.79h-24.52v-18.44h29.4Z"/>
        <path class="cls-1" d="M416.29,150.58c-1.88,0-3.46.63-4.72,1.9s-1.9,2.84-1.9,4.72v67.05c0,1.88.61,3.45,1.84,4.72,1.23,1.27,2.75,1.9,4.56,1.9s3.45-.63,4.72-1.9,1.9-2.84,1.9-4.72v-67.05c0-1.88-.6-3.45-1.79-4.72-1.19-1.26-2.73-1.9-4.61-1.9Z"/>
        <path class="cls-1" d="M482.25,180.25c-2.53-2.64-5.44-4.72-8.73-6.24s-6.78-2.28-10.47-2.28c-4.77,0-9.3,1.23-13.56,3.69-4.27,2.46-7.72,5.99-10.36,10.58-2.64,4.59-3.96,10.14-3.96,16.65,0,5.57,1.21,10.56,3.63,14.97,2.42,4.41,5.9,7.9,10.42,10.47,4.52,2.57,9.86,3.85,16,3.85,3.62,0,7.12-.6,10.52-1.79,3.4-1.19,6.04-2.59,7.92-4.18,2.02-1.59,3.04-3.36,3.04-5.32,0-1.45-.53-2.71-1.57-3.8-1.05-1.08-2.37-1.63-3.96-1.63-1.16,0-2.39.33-3.69.98-.8.43-1.68.96-2.66,1.57-.98.62-2.26,1.14-3.85,1.57-1.59.43-3.73.65-6.4.65-2.89,0-5.63-.71-8.19-2.12-2.57-1.41-4.67-3.47-6.29-6.18-.95-1.58-1.62-3.38-2.01-5.37h35.81c1.74,0,3.26-.54,4.56-1.63,1.3-1.09,1.99-2.5,2.06-4.23,0-3.91-.74-7.59-2.22-11.07-1.48-3.47-3.49-6.53-6.02-9.17ZM452.09,187.47c1.37-1.37,3-2.35,4.88-2.93,1.88-.58,3.9-.87,6.08-.87s4.36.49,6.35,1.46c1.99.98,3.65,2.3,4.99,3.96,1.34,1.66,2.08,3.54,2.22,5.64v.76h-28.43c.18-.9.39-1.73.65-2.5.79-2.31,1.88-4.16,3.25-5.53Z"/>
        <path class="cls-1" d="M469.12,149.39c-1.01.87-1.84,1.88-2.5,3.04l-6.29,11.07c-.43.72-.65,1.41-.65,2.06-.07,1.16.34,2.04,1.25,2.66.9.62,1.64.92,2.22.92.8,0,1.63-.11,2.5-.33.87-.22,1.66-.72,2.39-1.52l8.25-9.11c.65-.79,1.14-1.59,1.47-2.39.33-.8.52-1.55.6-2.28.07-1.52-.36-2.8-1.3-3.85-.94-1.05-2.42-1.57-4.45-1.57-1.3,0-2.46.43-3.47,1.3Z"/>
        <path class="cls-1" d="M544.96,172.82c-1.88,0-3.44.63-4.67,1.9-1.23,1.27-1.84,2.84-1.84,4.72v27.77c0,2.75-.47,5.08-1.41,7-.94,1.92-2.28,3.36-4.01,4.34-1.74.98-3.87,1.46-6.4,1.46-3.69,0-6.56-.96-8.63-2.88-2.06-1.92-3.09-5.22-3.09-9.93v-27.77c0-1.88-.62-3.45-1.84-4.72-1.23-1.26-2.79-1.9-4.67-1.9s-3.44.63-4.67,1.9c-1.23,1.27-1.84,2.84-1.84,4.72v31.68c0,4.05.8,7.65,2.39,10.8,1.59,3.15,3.81,5.61,6.67,7.38,2.86,1.77,6.2,2.66,10.04,2.66,3.25,0,6.15-.4,8.68-1.19,2.53-.8,4.72-1.97,6.56-3.53.84-.71,1.62-1.52,2.33-2.41v1.16c0,3.69-.56,6.6-1.68,8.73-1.12,2.13-2.79,3.65-4.99,4.56-2.21.9-4.97,1.36-8.3,1.36-2.46,0-4.63-.38-6.51-1.14-1.88-.76-3.4-1.32-4.56-1.68-1.59-.58-3.11-.49-4.56.27-1.45.76-2.5,2.19-3.15,4.29-.51,1.59-.34,3.09.49,4.5.83,1.41,2.33,2.59,4.5,3.53,1.66.72,3.8,1.26,6.4,1.63,2.6.36,5.06.54,7.38.54,5.21,0,9.91-.87,14.1-2.6,4.19-1.74,7.54-4.58,10.04-8.52,2.5-3.94,3.74-9.24,3.74-15.89v-46.11c0-1.88-.62-3.45-1.84-4.72-1.23-1.26-2.79-1.9-4.67-1.9Z"/>
        <path class="cls-1" d="M581.31,148.08c-1.3,0-2.46.43-3.47,1.3-1.01.87-1.84,1.88-2.5,3.04l-6.29,11.07c-.43.72-.65,1.41-.65,2.06-.07,1.16.34,2.04,1.25,2.66.9.62,1.64.92,2.22.92.8,0,1.63-.11,2.5-.33.87-.22,1.66-.72,2.39-1.52l8.25-9.11c.65-.79,1.14-1.59,1.46-2.39.33-.8.52-1.55.6-2.28.07-1.52-.36-2.8-1.3-3.85-.94-1.05-2.42-1.57-4.45-1.57Z"/>
        <path class="cls-1" d="M571.32,172.82c-1.88,0-3.44.63-4.67,1.9-1.23,1.27-1.84,2.84-1.84,4.72v44.81c0,1.88.61,3.45,1.84,4.72,1.23,1.27,2.78,1.9,4.67,1.9s3.43-.63,4.67-1.9c1.23-1.26,1.84-2.84,1.84-4.72v-44.81c0-1.88-.62-3.45-1.84-4.72-1.23-1.26-2.79-1.9-4.67-1.9Z"/>
        <path class="cls-1" d="M634.41,175.1c-2.79-2.24-6.85-3.36-12.21-3.36-2.46,0-4.74.38-6.84,1.14-2.1.76-3.98,1.75-5.64,2.98-1.66,1.23-3.11,2.55-4.34,3.96-.44.5-.83.99-1.19,1.47v-1.85c0-1.88-.62-3.45-1.84-4.72-1.23-1.26-2.79-1.9-4.67-1.9s-3.44.63-4.67,1.9c-1.23,1.27-1.84,2.84-1.84,4.72v44.81c0,1.88.61,3.45,1.84,4.72,1.23,1.27,2.78,1.9,4.67,1.9s3.43-.63,4.67-1.9c1.23-1.26,1.84-2.84,1.84-4.72v-27.77c0-2.39.52-4.54,1.57-6.46,1.05-1.92,2.57-3.45,4.56-4.61,1.99-1.16,4.43-1.74,7.32-1.74s5.24.58,6.84,1.74c1.59,1.16,2.69,2.7,3.31,4.61.61,1.92.92,4.07.92,6.46v27.77c0,1.88.61,3.45,1.84,4.72,1.23,1.27,2.78,1.9,4.67,1.9s3.43-.63,4.67-1.9c1.23-1.26,1.84-2.84,1.84-4.72v-27.77c0-4.56-.53-8.7-1.57-12.42-1.05-3.72-2.97-6.71-5.75-8.95Z"/>
      </g>
    </g>
  </g>
</svg>